<svg width="720" height="1024" viewBox="0 0 720 1024" fill="none" xmlns="http://www.w3.org/2000/svg">
<g clip-path="url(#clip0_4784_25591)">
<g opacity="0.13">
<path d="M-87.0555 15.5185C-87.0555 15.5185 -23.3231 69.2714 -10.3657 133.11C2.33155 195.619 0.000703183 255.68 -73.1668 279.761C-165.551 310.106 -281.174 216.089 -358.102 165.888C-393.543 142.772 -415.828 109.565 -414.506 96.4131" stroke="white" stroke-miterlimit="10"/>
<path d="M-47.6431 6.44035C-47.6431 6.44035 45.0434 75.6918 48.3442 157.04C51.6115 237.119 37.5748 305.862 -66.4281 320.334C-188.099 337.246 -305.128 228.711 -390.29 196.474C-434.414 179.762 -459.06 141.534 -457.805 129.045" stroke="white" stroke-miterlimit="10"/>
<path d="M-8.21371 -2.63804C-8.21371 -2.63804 113.324 82.2462 107.053 180.969C100.818 278.627 75.2742 356.925 -59.6548 360.908C-210.352 365.356 -336.005 259.955 -422.444 227.062C-477.376 227.38 -502.258 173.505 -501.069 161.679" stroke="white" stroke-miterlimit="10"/>
<path d="M31.1737 -11.7201C31.1737 -11.7201 181.591 88.6913 165.744 204.842C150.041 320.084 112.837 408.39 -52.973 401.439C-232.864 393.839 -361.142 278.574 -454.673 257.625C-518.393 268.065 -545.55 205.467 -544.426 194.286" stroke="white" stroke-miterlimit="10"/>
<path d="M70.6191 -20.7956C70.6191 -20.7956 249.859 95.1734 224.463 228.827C199.242 361.629 151.032 449.168 -46.2208 442.031C-256.175 434.423 -386.205 297.219 -486.844 288.194C-559.406 308.752 -588.764 237.419 -587.707 226.901" stroke="white" stroke-miterlimit="10"/>
<path d="M109.998 -29.8808C109.998 -29.8808 318.082 101.612 283.139 252.75C248.334 403.052 187.699 512.126 -39.5159 482.598C-278.128 451.557 -413.34 298.035 -519.051 318.812C-604.323 335.585 -632.034 269.418 -631.043 259.563" stroke="white" stroke-miterlimit="10"/>
<path d="M149.461 -38.954C149.461 -38.954 386.039 107.99 341.881 276.702C297.293 444.518 225.068 564.151 -32.7418 523.156C-300.881 480.54 -439.853 317.744 -551.207 349.419C-646.323 376.478 -675.305 301.401 -674.379 292.191" stroke="white" stroke-miterlimit="10"/>
<path d="M188.819 -48.0407C188.819 -48.0407 454.302 114.343 400.588 300.63C346.484 485.989 262.344 616.203 -26.0052 563.728C-323.692 509.553 -465.974 337.655 -583.38 380.005C-688.02 417.745 -718.468 333.375 -717.609 324.828" stroke="white" stroke-miterlimit="10"/>
<path d="M228.3 -57.1133C228.3 -57.1133 522.548 120.876 459.35 324.564C395.711 527.464 299.651 668.311 -19.1974 604.306C-346.506 538.601 -491.656 357.648 -615.516 410.595C-729.348 459.249 -761.666 365.346 -760.873 357.462" stroke="white" stroke-miterlimit="10"/>
<path d="M267.638 -66.1823C267.638 -66.1823 590.732 127.313 517.934 348.48C444.777 568.94 336.744 720.416 -12.5826 644.848C-369.516 567.648 -517.229 377.634 -647.813 441.169C-770.516 500.951 -804.972 397.325 -804.244 390.086" stroke="white" stroke-miterlimit="10"/>
<path d="M307.139 -75.2525C307.139 -75.2525 659.06 133.764 576.717 372.398C494.043 610.401 374.013 772.557 -5.77106 685.409C-392.347 596.713 -542.356 397.647 -679.947 471.76C-811.444 542.605 -848.204 429.293 -847.543 422.717" stroke="white" stroke-miterlimit="10"/>
<path d="M346.46 -84.3417C346.46 -84.3417 727.331 140.209 635.421 396.345C543.231 651.89 411.188 824.725 0.964686 725.981C-415.274 625.805 -567.353 417.584 -712.12 502.346C-852.19 584.368 -891.421 461.262 -890.826 455.349" stroke="white" stroke-miterlimit="10"/>
<path d="M385.974 -93.4109C385.974 -93.4109 795.583 146.653 694.127 420.274C592.388 693.322 448.342 876.891 7.69844 766.553C-438.221 654.895 -592.204 437.481 -744.296 532.933C-892.814 626.145 -934.58 493.165 -934.059 487.987" stroke="white" stroke-miterlimit="10"/>
<path d="M425.385 -102.49C425.385 -102.49 863.838 153.097 752.817 444.201C641.61 734.851 485.481 929.074 14.4181 807.123C-461.199 683.982 -616.958 457.334 -776.503 563.516C-933.363 667.928 -977.91 525.214 -977.447 520.609" stroke="white" stroke-miterlimit="10"/>
<path d="M464.816 -111.569C464.816 -111.569 932.093 159.558 811.528 468.129C690.786 776.32 522.64 981.257 21.177 847.678C-484.159 713.087 -641.563 477.147 -808.66 594.158C-973.786 709.723 -1021.13 557.219 -1020.73 553.277" stroke="white" stroke-miterlimit="10"/>
<path d="M504.228 -120.648C504.228 -120.648 1000.35 166.002 870.238 492.058C739.977 817.809 559.762 1033.44 27.9155 888.251C-507.118 742.175 -666.11 496.912 -840.898 624.702C-1014.2 751.448 -1064.4 589.092 -1064.08 585.866" stroke="white" stroke-miterlimit="10"/>
<path d="M543.658 -129.726C543.658 -129.726 1068.61 172.446 928.94 516.059C789.274 859.672 596.893 1085.71 34.6469 928.894C-530.124 771.368 -690.607 516.719 -873.022 655.366C-1054.48 793.259 -1107.6 621.209 -1107.34 618.647" stroke="white" stroke-miterlimit="10"/>
<path d="M583.067 -138.806C583.067 -138.806 1136.86 178.89 987.652 539.934C838.444 900.978 634.015 1137.85 41.3893 969.395C-553.101 800.418 -715.021 536.372 -905.208 685.897C-1094.76 834.945 -1150.81 653.125 -1150.61 651.154" stroke="white" stroke-miterlimit="10"/>
<path d="M622.492 -147.884C622.492 -147.884 1205.12 185.262 1046.36 563.845C887.599 942.428 670.888 1190.86 48.1281 1009.91C-576.325 830.312 -739.417 556.008 -937.329 716.471C-1134.96 876.637 -1194.01 685.096 -1193.88 683.77" stroke="white" stroke-miterlimit="10"/>
<path d="M661.923 -156.944C661.923 -156.944 1273.36 191.831 1105.07 587.773C936.777 983.716 708.106 1242.65 54.8674 1050.5C-599.154 859.015 -763.752 575.65 -969.568 747.05C-1175.38 918.451 -1237.31 717.056 -1237.24 716.393" stroke="white" stroke-miterlimit="10"/>
<path d="M701.333 -166.024C701.333 -166.024 1341.63 198.167 1163.78 611.703C985.927 1025.24 745.337 1294.45 61.6043 1091.07C-622.128 887.704 -788.07 595.258 -1001.74 777.637C-1215.41 960.017 -1280.54 749.024 -1280.54 749.024" stroke="white" stroke-miterlimit="10"/>
</g>
<path d="M1031 1149C1031 1060.88 1013.64 973.629 979.923 892.219C946.202 810.81 896.777 736.839 834.469 674.531C772.161 612.223 698.19 562.798 616.781 529.077C535.371 495.356 448.117 478 360 478C271.883 478 184.629 495.356 103.219 529.077C21.8099 562.798 -52.1606 612.223 -114.469 674.531C-176.777 736.839 -226.202 810.81 -259.923 892.219C-293.644 973.629 -311 1060.88 -311 1149L1031 1149Z" fill="url(#paint0_linear_4784_25591)"/>
</g>
<defs>
<linearGradient id="paint0_linear_4784_25591" x1="360" y1="478" x2="360" y2="1149" gradientUnits="userSpaceOnUse">
<stop stop-color="white" stop-opacity="0.13"/>
<stop offset="1" stop-color="white" stop-opacity="0"/>
</linearGradient>
<clipPath id="clip0_4784_25591">
<rect width="720" height="1024" fill="white"/>
</clipPath>
</defs>
</svg>
